<mxfile host="app.diagrams.net" modified="2023-09-11T20:19:33.605Z" agent="Mozilla/5.0 (Windows NT 10.0; Win64; x64) AppleWebKit/537.36 (KHTML, like Gecko) Chrome/114.0.0.0 YaBrowser/23.7.4.971 Yowser/2.5 Safari/537.36" etag="JQ6Hc79Bkw9A-9j4JZhP" version="21.7.4" type="device">
  <diagram id="R2lEEEUBdFMjLlhIrx00" name="Page-1">
    <mxGraphModel dx="1386" dy="791" grid="1" gridSize="10" guides="1" tooltips="1" connect="1" arrows="1" fold="1" page="1" pageScale="1" pageWidth="850" pageHeight="1100" math="0" shadow="0" extFonts="Permanent Marker^https://fonts.googleapis.com/css?family=Permanent+Marker">
      <root>
        <mxCell id="0" />
        <mxCell id="1" parent="0" />
        <mxCell id="tClZTGOpeD0ZLuxJo3iy-2" value="CREATE TABLE users&#xa;(&#xa;    user_id VARCHAR(36) PRIMARY KEY,&#xa;    profile_image_url VARCHAR(255) NOT NULL,&#xa;    banner_image_url VARCHAR(255) NOT NULL,&#xa;    birthdate DATE NOT NULL&#xa;);&#xa;&#xa;&#xa;CREATE TABLE friends&#xa;(&#xa;    who_add_user_id VARCHAR(36) NOT NULL,&#xa;    who_should_accept_user_id VARCHAR(36) NOT NULL,&#xa;    is_accept BOOLEAN NOT NULL,&#xa;&#xa;    PRIMARY KEY (who_add_user_id, who_should_accept_user_id),&#xa;    FOREIGN KEY (who_add_user_id) REFERENCES users(user_id) ON DELETE CASCADE,&#xa;    FOREIGN KEY (who_should_accept_user_id) REFERENCES users(user_id) ON DELETE CASCADE&#xa;);&#xa;&#xa;&#xa;CREATE TABLE posts&#xa;(&#xa;    post_id INT PRIMARY KEY,&#xa;    user_id VARCHAR(36),&#xa;    title VARCHAR(255) NOT NULL,&#xa;    body VARCHAR(255) NOT NULL,&#xa;    &#xa;    FOREIGN KEY (user_id) REFERENCES users(user_id) ON DELETE CASCADE&#xa;);&#xa;&#xa;&#xa;CREATE TABLE tags&#xa;(&#xa;    tag_id INT,&#xa;    tag_name VARCHAR(255),&#xa;    &#xa;    PRIMARY KEY (tag_id),&#xa;);&#xa;&#xa;CREATE TABLE post_tags&#xa;(&#xa;    post_id INT NOT NULL,&#xa;    tag_id INT NOT NULL,&#xa;    tag_additional_name VARCHAR(255) NULL,&#xa;&#xa;    PRIMARY KEY (tag_id, post_id),&#xa;    FOREIGN KEY (tag_id) REFERENCES tags(tag_id) ON DELETE CASCADE,&#xa;    FOREIGN KEY (post_id) REFERENCES posts(post_id) ON DELETE CASCADE&#xa;);&#xa;&#xa;&#xa;CREATE TABLE comments&#xa;(&#xa;    comment_id INT PRIMARY KEY,&#xa;    post_id INT NOT NULL,&#xa;    user_id VARCHAR(36) NOT NULL,&#xa;    body VARCHAR(255) NOT NULL,&#xa;&#xa;    FOREIGN KEY (post_id) REFERENCES posts(post_id) ON DELETE CASCADE,&#xa;    FOREIGN KEY (user_id) REFERENCES users(user_id) ON DELETE CASCADE&#xa;);&#xa;&#xa;&#xa;CREATE TABLE comment_likes&#xa;(&#xa;    comment_id INT NOT NULL,&#xa;    user_id VARCHAR(36) NOT NULL,&#xa;&#xa;    PRIMARY KEY (comment_id, user_id),&#xa;    FOREIGN KEY (comment_id) REFERENCES comments(comment_id) ON DELETE CASCADE,&#xa;    FOREIGN KEY (user_id) REFERENCES users(user_id) ON DELETE CASCADE&#xa;);&#xa;&#xa;&#xa;CREATE TABLE post_likes&#xa;(&#xa;    post_id INT NOT NULL,&#xa;    user_id VARCHAR(36) NOT NULL,&#xa;&#xa;    PRIMARY KEY (post_id, user_id),&#xa;    FOREIGN KEY (post_id) REFERENCES posts(post_id) ON DELETE CASCADE,&#xa;    FOREIGN KEY (user_id) REFERENCES users(user_id) ON DELETE CASCADE&#xa;);" style="text;whiteSpace=wrap;html=1;" vertex="1" parent="1">
          <mxGeometry width="560" height="1250" as="geometry" />
        </mxCell>
      </root>
    </mxGraphModel>
  </diagram>
</mxfile>
